<mxfile host="Electron" modified="2023-08-21T12:53:03.939Z" agent="5.0 (Windows NT 10.0; Win64; x64) AppleWebKit/537.36 (KHTML, like Gecko) draw.io/20.3.0 Chrome/104.0.5112.114 Electron/20.1.3 Safari/537.36" etag="ZLS48GVq2MlPNLKprAwC" compressed="false" version="20.3.0" type="device">
  <diagram name="ND0015" id="1CP9VX86ncTdAmcYDIcw">
    <mxGraphModel dx="521" dy="357" grid="1" gridSize="2" guides="1" tooltips="1" connect="1" arrows="1" fold="1" page="1" pageScale="1" pageWidth="1169" pageHeight="827" math="0" shadow="0">
      <root>
        <mxCell id="22vkG-h5v2N9dKBLQ-ZE-0" />
        <mxCell id="22vkG-h5v2N9dKBLQ-ZE-124" value="Connection" style="" parent="22vkG-h5v2N9dKBLQ-ZE-0" />
        <object label="Connection" PipingConnector="Y" LabelConnector="N" SignalConnector="N" Direction="270" id="UGamG9ZxtTiyNvzwKLrg-142">
          <mxCell style="vsdxID=1407;fillColor=none;gradientColor=none;shape=stencil(rVFbDsIgEDwNnyQU4glqvcfGblsilmZBS28vZGMsxg9j/JvZmX1kR5g2TLCg0CpE8hdcbR8nYY5CaztPSDZmJEwnTDt4wpH8be6ZL1CcBV39vUxI3KdKh1YbswPTEzuBzlmiVGmKau9zUKM+jlJJQrJBko8QrZ+rrQ5oRJnXyMHBWElhRVx25ebnw/5zVvPFWRm83jxY5zilvf4eSy5xpKZ7AA==);strokeColor=#00ff00;strokeWidth=1;points=[[0.5,0.5,0,0,0]];labelBackgroundColor=none;rounded=0;html=1;whiteSpace=wrap;aspect=fixed;noLabel=1;snapToPoint=1;container=0;fontSize=16;" parent="22vkG-h5v2N9dKBLQ-ZE-124" vertex="1">
            <mxGeometry x="282" y="762" width="12" height="12" as="geometry" />
          </mxCell>
        </object>
        <object label="Connection" PipingConnector="Y" LabelConnector="N" SignalConnector="N" Direction="90" id="UGamG9ZxtTiyNvzwKLrg-143">
          <mxCell style="vsdxID=1407;fillColor=none;gradientColor=none;shape=stencil(rVFbDsIgEDwNnyQU4glqvcfGblsilmZBS28vZGMsxg9j/JvZmX1kR5g2TLCg0CpE8hdcbR8nYY5CaztPSDZmJEwnTDt4wpH8be6ZL1CcBV39vUxI3KdKh1YbswPTEzuBzlmiVGmKau9zUKM+jlJJQrJBko8QrZ+rrQ5oRJnXyMHBWElhRVx25ebnw/5zVvPFWRm83jxY5zilvf4eSy5xpKZ7AA==);strokeColor=#00ff00;strokeWidth=1;points=[[0.5,0.5,0,0,0]];labelBackgroundColor=none;rounded=0;html=1;whiteSpace=wrap;aspect=fixed;noLabel=1;snapToPoint=1;container=0;fontSize=16;" parent="22vkG-h5v2N9dKBLQ-ZE-124" vertex="1">
            <mxGeometry x="283" y="72" width="12" height="12" as="geometry" />
          </mxCell>
        </object>
        <mxCell id="22vkG-h5v2N9dKBLQ-ZE-135" value="Label" style="" parent="22vkG-h5v2N9dKBLQ-ZE-0" />
        <object label="%LabelLines%&amp;nbsp; &amp;nbsp; &amp;nbsp; &amp;nbsp; &amp;nbsp; &amp;nbsp;%LabelIndex%" placeholders="1" LabelLines="1" LabelIndex="A" id="UGamG9ZxtTiyNvzwKLrg-17">
          <mxCell style="rounded=0;whiteSpace=wrap;html=1;fillColor=none;strokeColor=#FF0000;fontColor=#FF0000;fontSize=10;align=left;" parent="22vkG-h5v2N9dKBLQ-ZE-135" vertex="1">
            <mxGeometry x="337" y="398" width="80" height="16" as="geometry" />
          </mxCell>
        </object>
        <mxCell id="22vkG-h5v2N9dKBLQ-ZE-136" value="Origo" style="" parent="22vkG-h5v2N9dKBLQ-ZE-0" />
        <object label="origo" id="UGamG9ZxtTiyNvzwKLrg-141">
          <mxCell style="vsdxID=1407;fillColor=none;gradientColor=none;shape=stencil(rVFbDsIgEDwNnyQU4glqvcfGblsilmZBS28vZGMsxg9j/JvZmX1kR5g2TLCg0CpE8hdcbR8nYY5CaztPSDZmJEwnTDt4wpH8be6ZL1CcBV39vUxI3KdKh1YbswPTEzuBzlmiVGmKau9zUKM+jlJJQrJBko8QrZ+rrQ5oRJnXyMHBWElhRVx25ebnw/5zVvPFWRm83jxY5zilvf4eSy5xpKZ7AA==);strokeColor=#ff0000;strokeWidth=1;points=[[0.5,0.5,0,0,0]];labelBackgroundColor=none;rounded=0;html=1;whiteSpace=wrap;aspect=fixed;noLabel=1;snapToPoint=1;" parent="22vkG-h5v2N9dKBLQ-ZE-136" vertex="1">
            <mxGeometry x="284" y="764" width="8" height="8" as="geometry" />
          </mxCell>
        </object>
        <object label="Symbol" Width="4" Height="44" UoM="mm" id="22vkG-h5v2N9dKBLQ-ZE-138">
          <mxCell style="" parent="22vkG-h5v2N9dKBLQ-ZE-0" />
        </object>
        <mxCell id="UGamG9ZxtTiyNvzwKLrg-0" value="" style="rounded=0;whiteSpace=wrap;html=1;fillColor=none;" parent="22vkG-h5v2N9dKBLQ-ZE-138" vertex="1">
          <mxGeometry x="257" y="78" width="64" height="689" as="geometry" />
        </mxCell>
        <mxCell id="UGamG9ZxtTiyNvzwKLrg-2" value="" style="endArrow=none;html=1;rounded=0;jumpSize=14;entryX=0.5;entryY=0.032;entryDx=0;entryDy=0;entryPerimeter=0;exitX=0.5;exitY=0.093;exitDx=0;exitDy=0;exitPerimeter=0;" parent="22vkG-h5v2N9dKBLQ-ZE-138" source="UGamG9ZxtTiyNvzwKLrg-0" target="UGamG9ZxtTiyNvzwKLrg-0" edge="1">
          <mxGeometry width="50" height="50" relative="1" as="geometry">
            <mxPoint x="558" y="316" as="sourcePoint" />
            <mxPoint x="608" y="266" as="targetPoint" />
          </mxGeometry>
        </mxCell>
        <mxCell id="UGamG9ZxtTiyNvzwKLrg-3" value="" style="endArrow=none;html=1;rounded=0;jumpSize=14;entryX=0.5;entryY=0.032;entryDx=0;entryDy=0;entryPerimeter=0;exitX=0.5;exitY=0.093;exitDx=0;exitDy=0;exitPerimeter=0;" parent="22vkG-h5v2N9dKBLQ-ZE-138" edge="1">
          <mxGeometry width="50" height="50" relative="1" as="geometry">
            <mxPoint x="288" y="210.98399999999992" as="sourcePoint" />
            <mxPoint x="288" y="169.01600000000008" as="targetPoint" />
          </mxGeometry>
        </mxCell>
        <mxCell id="UGamG9ZxtTiyNvzwKLrg-4" value="" style="endArrow=none;html=1;rounded=0;jumpSize=14;entryX=0.5;entryY=0.032;entryDx=0;entryDy=0;entryPerimeter=0;exitX=0.5;exitY=0.093;exitDx=0;exitDy=0;exitPerimeter=0;" parent="22vkG-h5v2N9dKBLQ-ZE-138" edge="1">
          <mxGeometry width="50" height="50" relative="1" as="geometry">
            <mxPoint x="288" y="277.9839999999999" as="sourcePoint" />
            <mxPoint x="288" y="236.01600000000008" as="targetPoint" />
          </mxGeometry>
        </mxCell>
        <mxCell id="UGamG9ZxtTiyNvzwKLrg-5" value="" style="endArrow=none;html=1;rounded=0;jumpSize=14;entryX=0.5;entryY=0.032;entryDx=0;entryDy=0;entryPerimeter=0;exitX=0.5;exitY=0.093;exitDx=0;exitDy=0;exitPerimeter=0;" parent="22vkG-h5v2N9dKBLQ-ZE-138" edge="1">
          <mxGeometry width="50" height="50" relative="1" as="geometry">
            <mxPoint x="288" y="344.9839999999999" as="sourcePoint" />
            <mxPoint x="288" y="303.0160000000001" as="targetPoint" />
          </mxGeometry>
        </mxCell>
        <mxCell id="UGamG9ZxtTiyNvzwKLrg-6" value="" style="endArrow=none;html=1;rounded=0;jumpSize=14;entryX=0.5;entryY=0.032;entryDx=0;entryDy=0;entryPerimeter=0;exitX=0.5;exitY=0.093;exitDx=0;exitDy=0;exitPerimeter=0;" parent="22vkG-h5v2N9dKBLQ-ZE-138" edge="1">
          <mxGeometry width="50" height="50" relative="1" as="geometry">
            <mxPoint x="288" y="415.9839999999999" as="sourcePoint" />
            <mxPoint x="288" y="374.0160000000001" as="targetPoint" />
          </mxGeometry>
        </mxCell>
        <mxCell id="UGamG9ZxtTiyNvzwKLrg-7" value="" style="endArrow=none;html=1;rounded=0;jumpSize=14;entryX=0.5;entryY=0.032;entryDx=0;entryDy=0;entryPerimeter=0;exitX=0.5;exitY=0.093;exitDx=0;exitDy=0;exitPerimeter=0;" parent="22vkG-h5v2N9dKBLQ-ZE-138" edge="1">
          <mxGeometry width="50" height="50" relative="1" as="geometry">
            <mxPoint x="288" y="482.9839999999999" as="sourcePoint" />
            <mxPoint x="288" y="441.0160000000001" as="targetPoint" />
          </mxGeometry>
        </mxCell>
        <mxCell id="UGamG9ZxtTiyNvzwKLrg-12" value="" style="endArrow=none;html=1;rounded=0;jumpSize=14;entryX=0.5;entryY=0.032;entryDx=0;entryDy=0;entryPerimeter=0;exitX=0.5;exitY=0.093;exitDx=0;exitDy=0;exitPerimeter=0;" parent="22vkG-h5v2N9dKBLQ-ZE-138" edge="1">
          <mxGeometry width="50" height="50" relative="1" as="geometry">
            <mxPoint x="287.5" y="747.9639999999999" as="sourcePoint" />
            <mxPoint x="287.5" y="705.9960000000001" as="targetPoint" />
          </mxGeometry>
        </mxCell>
        <mxCell id="UGamG9ZxtTiyNvzwKLrg-13" value="" style="endArrow=none;html=1;rounded=0;jumpSize=14;entryX=0.5;entryY=0.032;entryDx=0;entryDy=0;entryPerimeter=0;exitX=0.5;exitY=0.093;exitDx=0;exitDy=0;exitPerimeter=0;" parent="22vkG-h5v2N9dKBLQ-ZE-138" edge="1">
          <mxGeometry width="50" height="50" relative="1" as="geometry">
            <mxPoint x="287.5" y="683.9639999999999" as="sourcePoint" />
            <mxPoint x="287.5" y="641.9960000000001" as="targetPoint" />
          </mxGeometry>
        </mxCell>
        <mxCell id="UGamG9ZxtTiyNvzwKLrg-14" value="" style="endArrow=none;html=1;rounded=0;jumpSize=14;entryX=0.5;entryY=0.032;entryDx=0;entryDy=0;entryPerimeter=0;exitX=0.5;exitY=0.093;exitDx=0;exitDy=0;exitPerimeter=0;" parent="22vkG-h5v2N9dKBLQ-ZE-138" edge="1">
          <mxGeometry width="50" height="50" relative="1" as="geometry">
            <mxPoint x="287.5" y="616.9639999999999" as="sourcePoint" />
            <mxPoint x="287.5" y="574.9960000000001" as="targetPoint" />
          </mxGeometry>
        </mxCell>
        <mxCell id="UGamG9ZxtTiyNvzwKLrg-15" value="" style="endArrow=none;html=1;rounded=0;jumpSize=14;entryX=0.5;entryY=0.032;entryDx=0;entryDy=0;entryPerimeter=0;exitX=0.5;exitY=0.093;exitDx=0;exitDy=0;exitPerimeter=0;" parent="22vkG-h5v2N9dKBLQ-ZE-138" edge="1">
          <mxGeometry width="50" height="50" relative="1" as="geometry">
            <mxPoint x="287.5" y="549.9639999999999" as="sourcePoint" />
            <mxPoint x="287.5" y="507.9960000000001" as="targetPoint" />
          </mxGeometry>
        </mxCell>
      </root>
    </mxGraphModel>
  </diagram>
</mxfile>
